<svg width="817" height="172" viewBox="0 0 817 172" fill="none" xmlns="http://www.w3.org/2000/svg">
<path d="M277.1 29.6886C270.755 30.6749 266.05 33.0026 261.286 37.4806C257.332 41.2089 254.664 46.2392 253.339 52.453L252.806 54.9386L252.727 69.0431C252.648 86.0079 252.786 88.237 254.15 92.5177C255.158 95.7331 257.57 99.9546 259.863 102.578C260.831 103.683 262.531 105.261 264.152 106.602C264.745 107.076 268.719 109.483 268.916 109.483C269.015 109.483 269.549 109.7 270.122 109.956C271.545 110.587 272.731 110.942 275.42 111.574L277.693 112.086L370.778 112.067C452.496 112.047 464.12 112.008 465.859 111.751C467.895 111.455 471.256 110.567 471.592 110.252C471.71 110.153 471.908 110.074 472.046 110.074C472.936 110.074 477.68 107.273 479.499 105.656C480.27 105.005 481.139 104.235 481.456 103.959C482.385 103.15 484.658 100.211 485.666 98.5343C487.603 95.2399 488.671 92.3007 489.521 87.8819C489.916 85.9093 489.916 56.6153 489.541 53.7944C488.928 49.356 486.635 43.7733 484.006 40.3606C482.998 39.039 479.38 35.429 478.688 35.0542C478.471 34.9161 477.522 34.3243 476.613 33.7128C473.707 31.7796 470.149 30.4382 466.156 29.7872C463.724 29.3927 463.23 29.3927 371.193 29.4124C297.974 29.4321 278.345 29.4913 277.1 29.6886ZM299.734 40.913C303.173 41.4062 306.435 42.4122 309.42 43.8917C310.902 44.6413 314.144 46.7323 314.559 47.2452C314.717 47.4425 314.539 47.9948 313.769 49.6519C312.444 52.4136 311.199 54.8794 310.942 55.195C310.685 55.5304 310.527 55.4515 308.906 54.2876C306.652 52.6503 303.272 51.0722 300.425 50.3028C298.212 49.6913 293.448 49.5335 290.898 49.9872C288.684 50.362 286.509 51.0524 285.501 51.6837C285.343 51.802 285.027 51.9599 284.809 52.0585C283.663 52.5714 281.073 54.8005 279.729 56.4378C276.705 60.1069 274.925 67.3466 275.598 73.1856C276.546 81.3327 279.709 86.4222 285.699 89.4009C288.545 90.8212 290.087 91.1763 294.179 91.2946C296.413 91.3538 298.014 91.2946 298.725 91.1565C303.885 90.0716 306.158 89.0655 309.459 86.3235C309.973 85.9093 310.507 85.6134 310.645 85.6726C310.784 85.712 311.416 86.7378 312.029 87.9017C312.662 89.0853 313.571 90.7817 314.065 91.6694L314.955 93.3067L314.105 94.0958C311.041 96.9759 306.435 99.1655 301.453 100.112C298.034 100.763 290.166 100.645 286.905 99.9151C279.749 98.2778 273.423 94.1353 269.865 88.7302C266.228 83.2067 264.765 78.1765 264.745 71.0354C264.745 67.5833 265.081 64.289 265.635 62.5333C265.773 62.0401 266.01 61.2511 266.149 60.7579C266.584 59.2192 268.086 55.7868 269.035 54.1495C273.364 46.6731 281.014 41.9585 290.739 40.7749C292.281 40.5776 298.034 40.6763 299.734 40.913ZM350.734 41.2089C353.936 41.8007 357.553 43.1421 360.123 44.6413C361.151 45.2528 364.175 47.403 364.175 47.5411C364.175 47.837 360.38 55.1358 360.123 55.3134C359.945 55.4515 359.471 55.2147 358.522 54.5046C357.771 53.972 356.802 53.321 356.367 53.0448C355.181 52.3347 352.058 50.8946 351.702 50.8946C351.524 50.8946 351.327 50.8354 351.248 50.7565C350.516 50.0069 343.657 49.4546 340.632 49.8886C333.674 50.8946 328.12 55.5896 326.123 62.1782C324.384 67.9581 324.403 73.4815 326.163 79.005C327.705 83.8183 330.867 87.4677 335.414 89.6968C338.359 91.1368 343.775 91.7089 348.362 91.0579C352.177 90.5056 355.932 88.8288 358.739 86.4024C359.253 85.9685 359.787 85.6134 359.945 85.6134C360.103 85.6134 360.637 86.4616 361.191 87.5269C361.724 88.5921 362.653 90.3083 363.266 91.3341L364.353 93.2081L363.721 93.8591C361.882 95.7528 357.909 98.0411 354.331 99.205C351.05 100.29 349.409 100.507 343.914 100.487C338.596 100.487 337.114 100.31 333.872 99.3036C331.717 98.6329 331.737 98.6329 329.582 97.5874C327.289 96.4827 326.163 95.7528 324.206 94.155C319.284 90.1308 316.042 84.5481 314.539 77.5255C314.006 74.961 313.788 68.9839 314.144 66.4392C314.816 61.764 316.595 56.6351 318.631 53.5577C320.074 51.3878 320.588 50.7368 321.932 49.3362C326.064 45.095 331.401 42.3727 337.984 41.13C340.316 40.696 340.949 40.6565 344.606 40.7354C347.571 40.7946 349.212 40.913 350.734 41.2089ZM401.062 45.2726C404.007 51.881 404.758 53.538 405.331 54.8005C405.628 55.4712 405.885 56.063 405.885 56.1222C405.885 56.1616 406.142 56.7534 406.458 57.4438C407.466 59.6335 408.791 62.5925 409.344 63.9142C409.621 64.6243 410.174 65.8079 410.53 66.5772C411.281 68.1554 412.329 70.5423 413.337 72.9884C413.713 73.9155 414.088 74.744 414.167 74.8624C414.266 74.961 414.839 76.263 415.472 77.7228C416.105 79.1825 416.915 81.0368 417.271 81.8259C417.646 82.6347 417.943 83.3843 417.943 83.5224C417.943 83.6407 418.022 83.838 418.121 83.9563C418.279 84.1142 423.082 94.7862 423.082 94.9638C423.082 95.0229 423.537 95.9895 424.071 97.1534C424.624 98.3173 425.059 99.3825 425.059 99.5403C425.059 99.7771 424.249 99.8165 419.682 99.7771L414.325 99.7179L413.989 99.1261C413.812 98.7907 413.377 97.7847 413.021 96.8772C412.665 95.9698 412.309 95.0821 412.21 94.9046C411.855 94.1747 411.024 92.3401 410.55 91.1368C410.253 90.4267 409.937 89.6968 409.838 89.5192C409.72 89.322 409.641 89.0853 409.641 88.9669C409.641 88.8683 409.364 88.1976 409.028 87.4874L408.435 86.2052H394.499C381.413 86.2052 380.563 86.2249 380.444 86.5405C380.088 87.6058 376.728 95.4372 375.562 97.9425C375.305 98.4751 375.048 99.1261 374.969 99.3628L374.83 99.8165H369.493C366.567 99.8165 364.175 99.7376 364.175 99.6587C364.175 99.4812 365.421 96.5813 366.389 94.4903C366.706 93.7802 367.2 92.6952 367.457 92.064C367.734 91.4327 368.208 90.3478 368.524 89.6376C368.86 88.9472 369.117 88.3159 369.117 88.2567C369.117 88.1778 369.434 87.4479 369.829 86.6194C370.224 85.7909 370.837 84.3903 371.213 83.5026C371.588 82.6149 372.359 80.8396 372.952 79.5573C374.415 76.3419 374.731 75.6317 375.305 74.2706C375.581 73.6196 376.253 72.1204 376.807 70.9565C377.36 69.7729 377.815 68.7866 377.815 68.7274C377.815 68.6683 379.752 64.2495 380.582 62.4347C381.314 60.7974 381.769 59.7716 381.769 59.6927C381.769 59.6335 382.223 58.6669 382.757 57.5228C383.31 56.3786 383.745 55.3923 383.745 55.3134C383.745 55.2345 384.398 53.6958 385.208 51.9007C386.019 50.1056 387.046 47.7384 387.501 46.6534C387.975 45.5685 388.549 44.2073 388.806 43.6353C389.063 43.0632 389.28 42.57 389.28 42.5108C389.28 42.4714 389.359 42.2149 389.478 41.919L389.675 41.4259L394.538 41.4653L399.401 41.5245L401.062 45.2726ZM460.72 41.7218C472.007 43.3985 478.076 50.2239 478.036 61.2511C477.996 67.3071 475.941 72.2388 472.007 75.5528C469.852 77.3677 467.164 78.7485 464.298 79.4784C459.178 80.8198 458.545 80.8593 448.444 80.879H439.687L439.648 90.2886L439.588 99.7179L434.429 99.7771L429.25 99.8165L429.151 99.3825C429.092 99.1261 429.032 85.9882 429.013 70.1675V41.4259H443.858C456.074 41.4259 459.059 41.4851 460.72 41.7218Z" fill="#0B1732"/>
<path d="M394.222 53.3404C394.123 53.6363 394.024 53.9914 394.024 54.1295C394.024 54.4057 389.854 64.7227 388.687 67.366C388.49 67.8 387.956 69.0822 387.501 70.2264C387.047 71.3705 386.177 73.4418 385.584 74.8227C384.991 76.2232 384.536 77.3871 384.576 77.4463C384.694 77.5449 404.541 77.5647 404.659 77.4463C404.699 77.3871 404.62 77.0518 404.442 76.6967C404.284 76.3416 403.73 75.0199 403.216 73.7772C402.702 72.5344 402.011 70.9365 401.694 70.2461C401.358 69.5359 400.785 68.2143 400.409 67.2871C400.034 66.3402 399.559 65.1961 399.362 64.7029C398.591 62.7895 397.543 60.2447 397.385 59.8699C396.634 58.1734 396.377 57.5816 396.14 56.8912C394.578 52.5908 394.538 52.5316 394.222 53.3404Z" fill="#0B1732"/>
<path d="M439.648 50.2436C439.608 50.3422 439.608 55.2541 439.648 61.1918L439.687 72.002H447.95C452.496 72.002 456.944 71.9033 457.853 71.8047C460.819 71.4299 462.973 70.4633 464.713 68.7471C466.729 66.7547 467.599 64.4072 467.619 60.9551C467.619 55.7078 465.543 52.8277 460.443 51.0523C458.17 50.2633 456.035 50.1055 447.653 50.1055C443.285 50.1055 439.687 50.1646 439.648 50.2436Z" fill="#0B1732"/>
<path d="M525.182 41.2286C522.73 41.4456 518.401 42.2741 517.077 42.8067C516.859 42.8856 516.247 43.1223 515.693 43.2999C512.254 44.5229 508.043 47.3833 505.197 50.5001C503.516 52.3346 500.907 56.7336 500.275 58.7852C500.195 59.0614 500.018 59.5348 499.879 59.8702C498.851 62.1585 498.159 66.7153 498.159 71.0157C498.159 79.6362 500.097 85.5936 504.762 91.2749C506.521 93.4251 509.743 95.9303 512.728 97.4887C521.169 101.868 533.879 102.124 545.522 98.1397C547.025 97.6268 549.278 96.5616 549.555 96.2262C549.733 95.9895 549.792 92.9911 549.752 82.2401L549.693 68.5499L538.169 68.4907L526.664 68.4512L526.704 72.5346L526.763 76.6377L532.99 76.7364L539.216 76.835L539.276 83.6012L539.315 90.3477L538.782 90.5647C537.437 91.0776 533.879 91.7286 531.27 91.9456C525.913 92.3598 520.971 91.4129 518.006 89.4206C515.08 87.4282 513.242 85.495 511.957 83.0686C511.344 81.885 511.048 81.0368 510.138 77.8213C509.269 74.6848 509.249 67.8989 510.119 64.8018C510.395 63.8155 510.771 62.4938 510.949 61.8428C511.779 58.8641 514.626 55.0174 517.373 53.1237C518.54 52.3346 520.793 51.2299 521.92 50.9143C522.414 50.7762 523.027 50.579 523.304 50.4803C524.114 50.2042 528.166 49.8885 529.59 50.0069C532.99 50.2831 535.579 50.8946 538.327 52.0387C540.244 52.8475 543.19 54.6032 544.277 55.5698C544.672 55.9249 545.068 56.2208 545.166 56.2208C545.265 56.2208 545.483 55.9249 545.621 55.5698C545.779 55.2344 546.333 54.0508 546.827 52.9659C548.764 48.8233 549.001 48.3104 549.001 48.0342C549.001 47.7778 546.827 45.9629 546.511 45.9629C546.432 45.9629 546.214 45.8249 546.036 45.667C545.463 45.1542 542.122 43.5958 540.264 42.9842C535.401 41.4061 530.301 40.8143 525.182 41.2286Z" fill="#0B1732"/>
<path d="M622.932 41.2484C617.733 41.7416 613.008 43.2606 609.549 45.5488C604.232 49.0799 600.812 53.5775 598.756 59.7717C597.451 63.717 597.135 65.8277 597.135 70.7199C597.135 75.9475 597.55 78.7684 598.855 82.5559C599.23 83.6606 601.069 87.5664 601.642 88.4738C603.085 90.7818 604.469 92.3994 606.485 94.1551C609.826 97.0746 613.838 99.0867 618.286 100.113C621.943 100.961 627.023 101.197 630.463 100.704C641.177 99.1065 648.649 93.1885 652.444 83.3449C653.037 81.7668 653.334 80.7213 653.966 77.8215C654.698 74.5074 654.698 68.1949 654.006 64.2102C653.591 61.9613 652.741 59.0418 651.851 56.8127C650.586 53.7354 647.779 49.8492 645.249 47.7188C639.477 42.866 631.214 40.4594 622.932 41.2484ZM630.048 50.4805C632.776 51.1906 634.654 52.0981 636.452 53.5973C639.833 56.4379 642.066 60.9553 642.897 66.6563C643.252 69.0629 643.035 75.5529 642.541 77.6242C641.276 82.8912 639.082 86.4815 635.504 89.1643C631.985 91.7879 625.284 92.6559 620.243 91.1172C617.575 90.2887 615.894 89.2629 613.779 87.093C612.732 86.0277 611.071 83.8184 611.071 83.483C611.071 83.3844 610.854 82.9109 610.577 82.4178C609.905 81.2145 608.758 76.9535 608.521 74.685C607.533 65.9264 610.102 57.6018 614.985 53.7551C617.515 51.743 620.263 50.5199 623.129 50.1057C624.968 49.8492 628.328 50.0268 630.048 50.4805Z" fill="#0B1732"/>
<path d="M560.822 44.2269C560.664 47.4028 560.743 99.5599 560.881 99.7177C561.039 99.8558 595.435 99.9544 595.613 99.8163C595.81 99.6782 595.771 91.0972 595.593 90.8013C595.474 90.6237 592.608 90.5645 583.772 90.5645C577.348 90.5645 572.03 90.5054 571.951 90.4462C571.892 90.3673 571.813 79.5571 571.773 66.4192C571.753 53.2616 571.694 42.3923 571.635 42.2542C571.575 42.0767 570.31 42.0175 566.238 42.0175H560.921L560.822 44.2269Z" fill="#0B1732"/>
<path d="M664.028 42.1558C663.929 43.1224 664.008 99.6587 664.127 99.7573C664.285 99.9349 689.231 99.9546 692.552 99.7968C697.02 99.5601 700.874 98.4751 703.504 96.7392C706.686 94.6284 708.762 91.8667 709.75 88.4343C710.402 86.2052 710.383 81.9048 709.75 79.4982C708.663 75.5134 706.212 72.4558 702.792 70.8185C702.08 70.4831 701.349 70.128 701.171 70.0294C700.973 69.9111 700.677 69.8322 700.499 69.8322C699.886 69.8322 700.36 69.3587 701.784 68.5697C703.938 67.3663 705.717 65.5515 706.706 63.5196C707.852 61.1919 708.188 59.7322 708.169 57.0099C708.169 52.2163 706.449 48.6261 702.891 45.9236C701.27 44.7005 700.163 44.1087 698.107 43.4183C695.952 42.6884 694.905 42.4714 692.473 42.215C690.259 41.9782 664.048 41.9388 664.028 42.1558ZM688.717 50.4804C692.987 50.9144 695.517 52.3741 696.783 55.1359C697.712 57.148 697.613 60.2056 696.565 62.0599C695.952 63.1251 694.49 64.4468 693.383 64.9005C691.307 65.8079 690.338 65.8868 682.412 65.8868H674.92V58.2329C674.92 54.0114 674.959 50.5198 674.999 50.4804C675.197 50.3029 686.82 50.3029 688.717 50.4804ZM691.92 74.6257C692.849 74.7835 693.995 75.0794 694.47 75.2372C696.209 75.8685 697.652 77.2888 698.581 79.2614C699.135 80.445 699.273 81.0368 699.372 82.4177C699.688 87.3691 696.941 90.5253 691.584 91.3341C690.773 91.4525 687.195 91.5116 682.629 91.4919L675.019 91.4327L674.959 82.8517L674.92 74.2509L682.57 74.2706C688.638 74.2904 690.595 74.3693 691.92 74.6257Z" fill="#0B1732"/>
<path d="M738.61 42.2544C738.511 42.3925 738.057 43.2999 737.622 44.2862C735.744 48.5077 732.127 56.6942 731.257 58.6866C730.446 60.5606 729.28 63.1843 728.391 65.1964C726.987 68.3329 726.315 69.911 725.386 72.1007C724.773 73.5013 724.081 75.0794 723.824 75.5923C723.567 76.0854 723.231 76.8548 723.073 77.269C722.915 77.6833 722.282 79.1628 721.67 80.5831C720.543 83.187 720.365 83.5618 719.12 86.2446C718.724 87.0929 718.408 87.8227 718.408 87.8819C718.408 87.9411 718.111 88.6315 717.736 89.4206C717.084 90.7817 715.285 94.7468 714.751 95.9698C714.613 96.2854 714.178 97.252 713.782 98.12C713.387 98.9683 713.13 99.7376 713.189 99.8362C713.308 100.033 722.816 100.073 723.745 99.8757C724.358 99.7573 724.951 98.6132 727.323 93.0108C728.094 91.1565 728.845 89.3811 729.003 89.0655C729.142 88.7302 729.438 88.02 729.636 87.4874L730.031 86.5011L743.592 86.4419L757.172 86.4024L757.567 87.3296C758.121 88.6315 758.22 88.8683 758.951 90.4464C759.287 91.196 759.86 92.4979 760.216 93.3067C760.572 94.1155 761.145 95.3977 761.501 96.1671C761.857 96.9167 762.391 98.1003 762.707 98.771L763.26 99.994L768.914 99.9743C772.017 99.9546 774.587 99.8954 774.627 99.8362C774.666 99.777 774.567 99.4022 774.37 99.0274C774.034 98.2976 772.867 95.7528 772.037 93.8985C771.76 93.3067 771.424 92.5966 771.286 92.3204C771.148 92.0442 770.535 90.6239 769.902 89.1642C769.27 87.7044 768.281 85.5147 767.728 84.3311C767.155 83.1278 766.621 81.9442 766.542 81.6878C766.463 81.4313 766.008 80.4056 765.553 79.3995C765.079 78.4132 764.288 76.6378 763.774 75.4542C763.26 74.2509 762.667 72.8897 762.45 72.3966C762.232 71.9034 761.817 71.0157 761.56 70.4239C761.303 69.8321 760.868 68.8852 760.611 68.3526C760.117 67.3071 757.014 60.2647 755.334 56.4181C754.8 55.1753 754.088 53.5972 753.772 52.9067C753.456 52.2163 753.199 51.6245 753.199 51.5851C753.199 51.5456 752.882 50.8157 752.487 49.9675C752.092 49.1192 751.341 47.403 750.807 46.1602C750.273 44.9175 749.641 43.4972 749.384 43.004L748.949 42.1163L743.888 42.0571C739.994 42.0177 738.768 42.0769 738.61 42.2544ZM744.778 56.4575C745.311 57.7989 745.944 59.3573 746.201 59.9294C746.458 60.5015 746.675 61.0341 746.675 61.0933C746.675 61.2905 748.81 66.597 749.364 67.7608C749.621 68.2935 750.214 69.7138 750.688 70.9171C751.182 72.1007 751.934 73.9352 752.368 74.961C752.803 75.9868 753.218 77.0323 753.298 77.269L753.416 77.7227H743.651H733.866L734.518 76.1841C734.874 75.3556 736.001 72.7517 736.989 70.4239C737.998 68.0962 739.105 65.4726 739.46 64.6046C742.05 58.2921 743.513 54.5638 743.513 54.327C743.513 53.5972 743.888 54.2481 744.778 56.4575Z" fill="#0B1732"/>
<path d="M780.814 42.1557C780.735 42.2148 780.676 55.2344 780.676 71.0551V99.8164H798.367H816.059V95.1807V90.5252L806.63 90.5449C801.431 90.5449 795.956 90.5449 794.473 90.5449H791.745L791.706 66.3207L791.646 42.1162L786.289 42.057C783.344 42.0373 780.893 42.0768 780.814 42.1557Z" fill="#0B1732"/>
<path d="M107.476 0.927212C107.535 1.45983 107.634 4.22155 107.693 7.10162C108.227 33.0223 108.326 37.1057 108.424 37.1846C108.543 37.2833 142.484 20.3381 142.543 20.1606C142.563 20.062 141.772 19.4899 140.764 18.8981C137.008 16.6887 131.177 13.3155 129.931 12.6251C129.22 12.2305 126.433 10.6327 123.705 9.07428C112.24 2.52506 110.203 1.38092 110.085 1.38092C110.026 1.38092 109.472 1.0653 108.84 0.690491C108.207 0.315685 107.614 6.10352e-05 107.535 6.10352e-05C107.456 6.10352e-05 107.436 0.414318 107.476 0.927212Z" fill="#0B1732"/>
<path d="M0.256977 29.8266C0.256977 35.2908 0.197674 58.5484 0.118605 81.5102L0 123.271L1.30465 123.883C2.01628 124.198 2.62907 124.475 2.68837 124.475C2.72791 124.475 4.50698 125.303 6.60233 126.309C8.71744 127.335 10.7535 128.302 11.1291 128.479C13.7779 129.663 18.8779 131.99 20.6174 132.819C22.4756 133.687 24.314 134.555 26.35 135.482C26.7256 135.64 28.3267 136.389 29.8884 137.139C31.45 137.869 32.7942 138.421 32.8535 138.362C32.9128 138.303 32.9919 122.758 33.0314 103.821C33.0512 84.9031 33.15 69.4375 33.2291 69.477C33.3081 69.5164 34.3558 70.0096 35.5419 70.6014C36.7477 71.1734 38.8233 72.1992 40.1872 72.8305C47.3826 76.2629 69.5616 87.2703 69.9965 87.6254C70.2337 87.8424 70.2733 91.4918 70.1546 117.176C70.0953 133.292 69.9767 149.271 69.9174 152.703L69.7791 158.957L70.2535 159.095C70.8267 159.272 78.6744 162.369 92.2942 167.794L102.395 171.818H105.005H107.594V120.805V69.8123L106.566 69.3586C105.993 69.1021 103.166 67.7805 100.28 66.4193C97.3942 65.0779 94.5477 63.7365 93.9546 63.4604C93.3616 63.1842 91.8988 62.5135 90.693 61.9414C89.507 61.3693 87.5895 60.4816 86.443 59.9687C84.5058 59.1008 82.6279 58.2131 76.9942 55.5105C75.7686 54.9187 74.7407 54.4453 74.7012 54.4453C74.6221 54.4453 73.436 53.893 68.4547 51.5455C67.6442 51.151 65.6872 50.2436 64.1453 49.4939C62.5837 48.7443 61.2791 48.1328 61.2395 48.1328C61.1605 48.1328 59.1442 47.1859 54.1233 44.7793C52.7198 44.1086 51.0198 43.2998 50.3674 43.0039C46.6512 41.3074 38.1907 37.3818 36.3326 36.4941C35.1465 35.9418 33.7628 35.2908 33.2686 35.0738C32.7744 34.8568 31.4895 34.2453 30.4023 33.7324C29.3151 33.2195 27.9907 32.608 27.4372 32.3516C24.907 31.2271 21.7047 29.7279 19.6291 28.7416C18.3837 28.1498 15.3593 26.7295 12.9081 25.5853C10.457 24.4412 7.13605 22.8631 5.49535 22.0938C1.83837 20.3381 0.889535 19.9238 0.533721 19.9238C0.296512 19.9238 0.256977 21.423 0.256977 29.8266Z" fill="#0B1732"/>
<path d="M180.536 69.1021C180.259 69.2402 179.469 69.6742 178.757 70.0687C178.045 70.4436 176.326 71.3707 174.902 72.1006C173.499 72.8305 171.226 74.0338 169.862 74.7637C167.371 76.0854 165.197 77.2295 160.077 79.8926C157.665 81.1551 155.293 82.4176 151.577 84.4297C151.043 84.7256 149.679 85.4357 148.572 86.0078L146.536 87.0533V117.945C146.516 134.93 146.477 150.277 146.398 152.052C146.338 153.808 146.338 155.248 146.398 155.248C146.516 155.248 151.478 152.822 169.763 143.807C174.448 141.499 178.994 139.27 179.904 138.855L181.524 138.106L181.406 103.624C181.347 84.6664 181.228 69.0824 181.149 69.0035C181.09 68.9246 180.793 68.9641 180.536 69.1021Z" fill="#0B1732"/>
</svg>
